<?xml version="1.0" encoding="UTF-8"?><!DOCTYPE svg PUBLIC "-//W3C//DTD SVG 1.1//EN" "http://www.w3.org/Graphics/SVG/1.1/DTD/svg11.dtd"><svg xmlns="http://www.w3.org/2000/svg"><symbol id="add" viewBox="0 0 489.4 489.4">
    <path fill="currentColor" d="M105.5 9.1h374.8v374.8H105.5z"/>
    <path d="M393 480.3c0-5-4.1-9.1-9.1-9.1H18.2V105.5c0-5-4.1-9.1-9.1-9.1S0 100.5 0 105.5v374.8c0 5 4.1 9.1 9.1 9.1h374.8c5 0 9.1-4.1 9.1-9.1zM373.9 187.5H302v-71.9c0-5-4.1-9.1-9.1-9.1s-9.1 4.1-9.1 9.1v71.9h-71.9c-5 0-9.1 4.1-9.1 9.1s4.1 9.1 9.1 9.1h71.9v71.9c0 5 4.1 9.1 9.1 9.1s9.1-4.1 9.1-9.1v-71.9h71.9c5 0 9.1-4.1 9.1-9.1-.1-5.1-4.1-9.1-9.1-9.1z"/>
    <path d="M105.5 393h374.8c5 0 9.1-4.1 9.1-9.1V9.1c0-5-4.1-9.1-9.1-9.1H105.5c-5 0-9.1 4.1-9.1 9.1v374.8c0 5 4.1 9.1 9.1 9.1zm9-374.8h356.7v356.7H114.5V18.2z"/>
</symbol><symbol id="compass" viewBox="0 0 489.032 489.032">
    <path fill="currentColor" d="M180.766 184.526c0-1.7 1.5-2.6 3.3-1.8 4.3 1.9 8.5 3.8 12.7 5.8l132 60c1.1.5 2.2 1 2.2 2.5s-1.1 1.9-2.3 2.4c-18.4 7.4-36.7 14.7-55.1 22.1-7.3 18.3-14.7 36.6-22 55-.5 1.1-.9 2.3-2.4 2.3-1.6.1-2.1-1-2.7-2.2-21.7-48-43.4-96-65-143.9-.3-.8-.8-1.4-.7-2.2z"/>
    <path d="M231.166 95.826c5-.4 8.7-4.9 8.2-9.8-.5-5-4.9-8.7-9.8-8.2-5 .4-8.7 4.9-8.2 9.8.4 4.7 4.4 8.3 9 8.3.2 0 .5-.1.8-.1zM242.466 412.026c5 0 9-4 9.1-9s-3.9-9.1-8.9-9.2-9.1 3.9-9.2 8.9c-.1 5 3.9 9.1 8.9 9.2 0 .1 0 .1.1.1zM96.566 265.326c-.7-5-5.3-8.4-10.3-7.7-5 .7-8.4 5.3-7.7 10.2.6 4.5 4.5 7.8 9 7.8.4 0 .8 0 1.3-.1 5-.6 8.4-5.2 7.7-10.2zM198.866 102.026c.9 0 1.8-.1 2.6-.4 4.8-1.5 7.5-6.5 6.1-11.3-1.5-4.8-6.5-7.5-11.3-6.1s-7.5 6.5-6.1 11.3c1.3 3.9 4.9 6.5 8.7 6.5zM77.366 234.026c-.3 5 3.5 9.3 8.5 9.6h.6c4.8 0 8.7-3.7 9-8.5.3-5-3.5-9.3-8.5-9.6s-9.3 3.5-9.6 8.5zM262.466 96.326c4.5 0 8.5-3.4 9-8 .6-5-3-9.5-8-10-5-.6-9.5 3-10 8-.6 5 3 9.5 8 10h1zM293.666 103.126c3.8 0 7.4-2.4 8.6-6.2 1.6-4.8-1-9.9-5.8-11.4-4.8-1.6-9.9 1-11.4 5.8-1.6 4.8 1 9.9 5.8 11.4.9.3 1.9.4 2.8.4zM122.166 345.626c-3.7 3.4-3.9 9.1-.5 12.8 1.8 1.9 4.2 2.9 6.6 2.9 2.2 0 4.4-.8 6.1-2.4 3.7-3.4 3.9-9.1.5-12.8-3.3-3.7-9.1-3.9-12.7-.5zM136.966 116.226c-3.8 3.2-4.4 8.9-1.1 12.8 1.8 2.1 4.4 3.2 6.9 3.2 2.1 0 4.1-.7 5.8-2.1 3.8-3.2 4.4-8.9 1.1-12.8-3.1-3.8-8.9-4.3-12.7-1.1zM318.466 114.926c1.4.8 3 1.2 4.5 1.2 3.1 0 6.2-1.7 7.9-4.6 2.5-4.4 1-9.9-3.4-12.4s-9.9-1-12.4 3.4-.9 9.9 3.4 12.4zM95.366 306.726c1 0 2-.2 3-.5 4.7-1.7 7.2-6.9 5.5-11.6s-6.9-7.2-11.6-5.5-7.2 6.9-5.5 11.6c1.3 3.7 4.8 6 8.6 6zM165.066 97.226c-4.4 2.4-6.1 7.9-3.7 12.3 1.7 3 4.8 4.8 8 4.8 1.4 0 2.9-.3 4.3-1.1 4.4-2.4 6.1-7.9 3.7-12.3s-7.9-6.1-12.3-3.7zM171.866 385.626c-2 4.6 0 9.9 4.6 12 1.2.5 2.4.8 3.7.8 3.5 0 6.8-2 8.3-5.4 2-4.6 0-9.9-4.6-11.9-4.6-2.2-10-.1-12 4.5zM157.666 366.026c-4.1-2.9-9.7-2-12.6 2.1-2.9 4.1-2 9.7 2.1 12.6 1.6 1.1 3.4 1.7 5.3 1.7 2.8 0 5.6-1.3 7.4-3.8 2.8-4.1 1.8-9.7-2.2-12.6zM210.566 408.326c4.2 0 7.9-2.9 8.8-7.1 1.1-4.9-2-9.7-6.9-10.8-4.9-1.1-9.7 2-10.8 6.9s2 9.7 6.9 10.8c.7.1 1.4.2 2 .2zM126.066 139.026c-3.9-3.1-9.6-2.5-12.7 1.5-3.1 3.9-2.5 9.6 1.5 12.7 1.7 1.3 3.6 2 5.6 2 2.7 0 5.3-1.2 7.1-3.4 3.1-4 2.4-9.7-1.5-12.8zM351.466 348.726c-3.5 3.6-3.4 9.3.2 12.8 1.8 1.7 4 2.6 6.3 2.6 2.4 0 4.7-.9 6.5-2.7 3.5-3.6 3.4-9.3-.2-12.8-3.6-3.6-9.3-3.5-12.8.1zM365.366 141.926c-4 3-4.8 8.7-1.8 12.7 1.8 2.4 4.5 3.6 7.2 3.6 1.9 0 3.8-.6 5.5-1.8 4-3 4.8-8.7 1.8-12.7s-8.7-4.8-12.7-1.8zM383.566 168.326c-4.5 2.1-6.4 7.6-4.3 12.1 1.6 3.3 4.8 5.2 8.2 5.2 1.3 0 2.6-.3 3.9-.9 4.5-2.2 6.4-7.6 4.3-12.1-2.2-4.5-7.6-6.4-12.1-4.3zM107.266 165.026c-4.5-2.3-9.9-.5-12.2 4-2.3 4.5-.5 9.9 4 12.2 1.3.7 2.7 1 4.1 1 3.3 0 6.5-1.8 8.1-5 2.3-4.5.5-10-4-12.2zM342.266 119.726c-3.3 3.8-2.9 9.5.8 12.8 1.7 1.5 3.9 2.3 6 2.3 2.5 0 5-1 6.8-3.1 3.3-3.8 2.9-9.5-.8-12.8-3.8-3.4-9.5-3-12.8.8zM82.966 200.626c-1.3 4.8 1.5 9.8 6.4 11.1.8.2 1.6.3 2.4.3 4 0 7.6-2.7 8.7-6.7 1.3-4.8-1.5-9.8-6.4-11.1-4.8-1.3-9.8 1.5-11.1 6.4zM328.366 368.126c-4.1 2.8-5.2 8.4-2.4 12.6 1.8 2.6 4.6 4 7.5 4 1.8 0 3.5-.5 5.1-1.6 4.1-2.8 5.2-8.4 2.4-12.6s-8.5-5.2-12.6-2.4zM392.266 310.326c3.6 0 7.1-2.2 8.5-5.8 1.8-4.7-.5-9.9-5.2-11.7-4.7-1.8-9.9.5-11.7 5.2-1.8 4.7.5 9.9 5.2 11.7 1 .4 2.1.6 3.2.6zM409.666 271.926c.8-4.9-2.5-9.6-7.5-10.4-4.9-.8-9.6 2.5-10.4 7.5s2.5 9.6 7.5 10.4c.5.1 1 .1 1.5.1 4.3-.1 8.1-3.2 8.9-7.6zM109.066 335.726c1.6 0 3.2-.4 4.7-1.3 4.3-2.6 5.7-8.2 3.1-12.4-2.6-4.3-8.2-5.7-12.4-3.1-4.3 2.6-5.7 8.2-3.1 12.4 1.6 2.8 4.6 4.4 7.7 4.4zM382.766 322.226c-4.2-2.7-9.8-1.4-12.5 2.8-2.7 4.2-1.5 9.8 2.8 12.5 1.5 1 3.2 1.4 4.9 1.4 3 0 5.9-1.5 7.6-4.2 2.6-4.2 1.4-9.8-2.8-12.5zM272.666 391.226c-4.9.9-8.1 5.7-7.2 10.6.8 4.3 4.6 7.4 8.9 7.4.6 0 1.1-.1 1.7-.2 4.9-.9 8.1-5.7 7.2-10.6-1-5-5.7-8.2-10.6-7.2zM301.766 382.426c-.1 0-.1 0-.2.1-4.6 1.9-6.8 7.2-4.9 11.8 1.4 3.5 4.8 5.6 8.4 5.6 1.1 0 2.3-.2 3.4-.7.1 0 .1-.1.2-.1 4.6-1.9 6.8-7.2 4.9-11.8s-7.2-6.8-11.8-4.9zM396.066 197.926c-4.9 1.2-7.8 6.1-6.6 11 1 4.1 4.7 6.9 8.8 6.9.7 0 1.5-.1 2.2-.3 4.9-1.2 7.8-6.1 6.6-11s-6.2-7.8-11-6.6zM402.366 229.326c-5 .2-8.9 4.4-8.7 9.4.2 4.9 4.2 8.7 9 8.7h.4c5-.2 8.9-4.4 8.7-9.4s-4.4-8.8-9.4-8.7z"/>
    <path d="M241.666.226c-65.3.8-126.4 26.9-172 73.6-32.7 33.4-55 75.2-64.5 120.7-9.2 44.3-6.1 90.3 9.2 132.8 1.3 3.7 4.8 6 8.5 6 1 0 2-.2 3.1-.5 4.7-1.7 7.2-6.9 5.5-11.6-29.5-82.3-9.9-172.3 51.1-234.8 42.2-43.2 98.8-67.4 159.2-68.1 60.4-.6 117.5 22.2 160.8 64.4l1.4 1.3-27.4.3c-5 .1-9 4.2-9 9.2.1 5 4.1 9 9.1 9h.1l49.2-.6c5-.1 9-4.2 9-9.2l-.5-49.2c-.1-5-4.1-8.9-9.2-9-5 .1-9 4.2-9 9.2l.3 27.4-1.4-1.3c-46.6-45.7-108.2-70.4-173.5-69.6zM86.266 406.426l-1.4-1.3 27.4-.3c5-.1 9-4.2 9-9.2s-4.2-8.9-9.2-9l-49.2.6c-5 .1-9 4.2-9 9.2l.6 49.2c.1 5 4.1 9 9.1 9h.1c5-.1 9-4.2 9-9.2l-.3-27.4 1.4 1.3c47.5 46.4 109.1 69.5 170.8 69.5 63.5 0 127-24.6 174.8-73.5 32.7-33.4 55-75.2 64.5-120.7 9.2-44.3 6.1-90.3-9.2-132.8-1.7-4.7-6.9-7.2-11.6-5.5s-7.2 6.9-5.5 11.6c29.5 82.3 9.9 172.3-51.1 234.8-87.4 89.2-230.9 90.9-320.2 3.7z"/>
    <path d="M174.866 176.626c-2 2.1-3.2 4.9-3.2 7.9 0 2.8 1 4.8 1.5 5.9l65 143.9c2.8 6.2 7.4 7.6 10.8 7.6h.6c3.3-.2 7.8-1.7 10.3-8l7.3-18.2c4.4-11.1 8.9-22.1 13.3-33.2 12.3-4.9 24.5-9.8 36.8-14.7l14.8-5.9c6.9-2.8 8-7.9 8-10.7 0-3.4-1.2-8-7.5-10.8-34-15.4-67.9-30.9-101.9-46.3l-33-15-9.9-4.5c-4.6-2.2-9.7-1.3-12.9 2zm48.2 33.8c29.4 13.4 58.8 26.8 88.3 40.2l-.9.3c-13.4 5.4-26.9 10.8-40.3 16.1-2.3.9-4.2 2.8-5.1 5.1-4.9 12.3-9.8 24.5-14.7 36.8l-1.8 4.4-51.9-114.8 26.4 11.9z"/>
</symbol><symbol id="handshake" viewBox="0 0 490.01 490.01">
    <path fill="currentColor" d="M9.11 246.527l52.617-153.42 62.711 21.507-52.616 153.42z"/>
    <path d="M169.994 106.097l-6.1 3c-7.6 3.7-16.5 4.2-24.4 1.4l-10.2-3.6c-.6-.4-1.2-.7-1.8-.9l-62.8-21.5c-4.7-1.6-9.9.9-11.5 5.6l-52.7 153.5c-.8 2.3-.6 4.8.4 6.9s2.9 3.8 5.2 4.6l62.7 21.5c1 .3 2 .5 2.9.5 3.8 0 7.3-2.4 8.6-6.1l49.7-144.6 3.4 1.2c12.5 4.4 26.5 3.6 38.5-2.2l6.1-3c7.5-3.7 16.3-4.2 24.2-1.5l115.3 39.7c-1.2 4.8-3.6 10.5-8 13.6-4.9 3.4-12.2 3.4-21.8.1l-51.4-17.6c-2.4-.8-5-.6-7.2.6s-3.8 3.3-4.5 5.7c-.1.3-7.2 26.9-29.9 39.1-14.3 7.7-32.1 8-53 .9-4.7-1.6-9.9.9-11.5 5.6-1.6 4.7.9 9.9 5.6 11.5 12 4.1 23.3 6.2 33.8 6.2 12.2 0 23.4-2.7 33.6-8.2 20.3-10.9 30.8-30 35.6-41.4l42.9 14.7c15.3 5.3 28.1 4.5 38-2.4 15.9-11 16.7-33.3 16.8-34.3.1-4-2.4-7.5-6.1-8.8l-122.4-42.2c-12.3-4.2-26.2-3.3-38 2.4zm-103.8 150.4l-45.6-15.6 46.7-136.3 45.6 15.6-46.7 136.3z"/>
    <path fill="currentColor" d="M421.274 268.948l-71.282-145.677 59.546-29.136 71.281 145.677z"/>
    <path d="M410.194 266.797l-21.5 19.8c-19.5 17.9-41.5 33-65.3 44.6l-114.1 55.8c-5 2.5-11.1.4-13.6-4.7-2.5-5-.4-11.1 4.7-13.6l1.4-.7 62.4-30.5c4.5-2.2 6.4-7.6 4.2-12.1s-7.6-6.4-12.1-4.2l-62.4 30.5-31.4 15.4c-5 2.5-11.1.4-13.6-4.7-1.2-2.4-1.4-5.2-.5-7.7.9-2.6 2.7-4.6 5.1-5.8l23.7-11.6 67.8-33.2c4.5-2.2 6.4-7.6 4.2-12.1s-7.6-6.4-12.1-4.2l-67.9 33.3-2.6 1.3-32.4 15.9c-2.4 1.2-5.2 1.4-7.7.5-2.6-.9-4.6-2.7-5.8-5.1-2.5-5-.4-11.1 4.7-13.6l11.2-5.5 22.9-11.2 6.4-3.1 52.6-25.8c4.5-2.2 6.4-7.6 4.2-12.1s-7.6-6.4-12.1-4.2l-57 27.9-24.9 12.2c-5 2.4-11.1.4-13.6-4.7-1.2-2.4-1.4-5.2-.5-7.7.9-2.6 2.7-4.6 5.1-5.8l43.5-21.3c4.5-2.2 6.4-7.6 4.2-12.1s-7.6-6.4-12.1-4.2l-43.5 21.3c-6.8 3.3-11.9 9.1-14.3 16.2s-2 14.8 1.3 21.6c2.1 4.2 5.1 7.7 8.7 10.3-6.3 8.3-7.9 19.7-3 29.7 3.3 6.8 9.1 11.9 16.2 14.3 3 1 6 1.5 9 1.5-.1 4.5.8 9 2.9 13.1 4.9 10 15 15.8 25.4 15.8 4.2 0 8.4-.9 12.4-2.9l6.4-3.1c.3 3.4 1.2 6.7 2.7 9.9 4.9 10 15 15.8 25.4 15.8 4.2 0 8.4-.9 12.4-2.9l114.1-55.8c25.4-12.4 48.8-28.4 69.6-47.5l25.5-23.5 58.4-28.6c4.5-2.2 6.4-7.6 4.2-12.1l-71.4-145.5c-1.1-2.2-2.9-3.8-5.2-4.6-2.3-.8-4.8-.6-6.9.4l-59.6 29.1c-4.5 2.2-6.4 7.6-4.2 12.1l68.4 139.7zm-4.8-160.6l63.3 129.5-43.3 21.2-63.3-129.5 43.3-21.2z"/>
</symbol><symbol id="invoice" viewBox="0 0 488.9 488.9">
    <path fill="currentColor" d="M364.7 461.2l18.6-18.6 18.6 18.6 18.6 18.6 18.6-18.6V152.3c0-17.8-14.4-32.3-32.3-32.3H146.7c17.8 0 32.3 14.4 32.3 32.3v308.8l18.6 18.6 18.6-18.6 18.6-18.6 18.6 18.6 18.6 18.6 18.6-18.6 18.6-18.6 18.6 18.6 18.6 18.6 18.3-18.5z"/>
    <path d="M225.2 199h169.2c5 0 9.1-4.1 9.1-9.1s-4.1-9.1-9.1-9.1H225.2c-5 0-9.1 4.1-9.1 9.1s4.1 9.1 9.1 9.1zM225.2 247.3h122.9c5 0 9.1-4.1 9.1-9.1s-4.1-9.1-9.1-9.1H225.2c-5 0-9.1 4.1-9.1 9.1 0 5.1 4.1 9.1 9.1 9.1zM225.2 291.6h169.2c5 0 9.1-4.1 9.1-9.1s-4.1-9.1-9.1-9.1H225.2c-5 0-9.1 4.1-9.1 9.1 0 5.1 4.1 9.1 9.1 9.1zM241.3 323.9h-16.1c-5 0-9.1 4.1-9.1 9.1s4.1 9.1 9.1 9.1h16.1c5 0 9.1-4.1 9.1-9.1s-4.1-9.1-9.1-9.1zM241.3 368.2h-16.1c-5 0-9.1 4.1-9.1 9.1s4.1 9.1 9.1 9.1h16.1c5 0 9.1-4.1 9.1-9.1-.1-5.1-4.1-9.1-9.1-9.1zM394.4 323.9H277.5c-5 0-9.1 4.1-9.1 9.1s4.1 9.1 9.1 9.1h116.9c5 0 9.1-4.1 9.1-9.1s-4.1-9.1-9.1-9.1zM357.1 377.2c0-5-4.1-9.1-9.1-9.1h-70.5c-5 0-9.1 4.1-9.1 9.1s4.1 9.1 9.1 9.1H348c5 0 9.1-4.1 9.1-9.1z"/>
    <path d="M339.7 486.2c3.5 3.5 9.3 3.5 12.8 0l30.8-30.8 30.8 30.8c1.8 1.8 4.1 2.7 6.4 2.7s4.6-.9 6.4-2.7l18.6-18.6c1.7-1.7 2.7-4 2.7-6.4V152.3c0-22.8-18.5-41.3-41.3-41.3h-69.5V9.1c0-5-4.1-9.1-9.1-9.1H49.8c-5 0-9.1 4.1-9.1 9.1v308.8c0 22.8 18.5 41.3 41.3 41.3h52.4c5 0 9.1-4.1 9.1-9.1s-4.1-9.1-9.1-9.1h-18.2c4.5-6.6 7.2-14.6 7.2-23.2V152.3c0-12.8 10.4-23.2 23.2-23.2 12.8 0 23.2 10.4 23.2 23.2v308.8c0 .6.1 1.2.2 1.8.1.4.2.7.3 1.1.1.2.1.4.2.6.2.4.4.8.6 1.1.1.1.1.3.2.4.3.5.7 1 1.1 1.4l18.6 18.6c3.5 3.5 9.3 3.5 12.8 0l30.8-30.8 30.8 30.8c3.5 3.5 9.3 3.5 12.8 0l30.8-30.8 30.7 30.9zM105.3 152.3v165.6c0 12.8-10.4 23.2-23.2 23.2s-23.2-10.4-23.2-23.2V18.1h260.4V111H146.6c-22.8 0-41.3 18.5-41.3 41.3zm166.5 314.6L241 436.1c-1.8-1.8-4.1-2.7-6.4-2.7-2.3 0-4.6.9-6.4 2.7l-30.8 30.8-9.5-9.5V152.3c0-1.3-.1-2.6-.2-3.8 0-.4-.1-.7-.1-1.1-.1-.9-.2-1.8-.4-2.7-.1-.4-.1-.7-.2-1.1-.2-1.1-.5-2.3-.9-3.4 0-.1 0-.1-.1-.2-.4-1.2-.8-2.3-1.3-3.4-.1-.3-.3-.6-.4-1-.4-.8-.7-1.6-1.2-2.4-.2-.3-.3-.6-.5-1-.5-.9-1.1-1.9-1.7-2.8-.1-.1-.1-.2-.2-.3v-.1h225.9c12.8 0 23.2 10.4 23.2 23.2v305.2l-9.5 9.5-30.8-30.8c-3.5-3.5-9.3-3.5-12.8 0l-30.8 30.8-30.5-30.7c-3.5-3.5-9.3-3.5-12.8 0l-30.8 30.7z"/>
</symbol><symbol id="like-2" viewBox="0 0 485.027 485.027">
    <path fill="currentColor" d="M109.4 459.991H13c-2.1 0-3.9-1.8-3.9-3.9v-248.4c0-2.1 1.8-3.9 3.9-3.9h96.4c2.1 0 3.9 1.8 3.9 3.9v248.4c0 2.1-1.7 3.9-3.9 3.9z"/>
    <path d="M284.6 20.391c-28.2-20.7-67.2-8.8-68.8-8.3-3.8 1.2-6.3 4.7-6.3 8.6v85.8c0 29.1-13.8 53.7-41.1 73.2-21.1 15.1-42.7 21.3-42.9 21.4-.2 0-.3.1-.5.2l-5.1 1.7c-3-4.9-8.3-8.2-14.5-8.2H16.9c-9.3 0-16.9 7.6-16.9 16.9v240.5c0 9.3 7.6 16.9 16.9 16.9h88.6c8 0 14.7-5.6 16.4-13 11.9 12.7 28.8 20.7 47.6 20.7h209.8c44.6 0 73.1-23.3 78.1-64l26.8-170.2c3.9-24.7-6.2-49.7-25.8-63.7-11.1-8-24.2-12.2-37.9-12.2H311.4v-79.6c0-31.2-9-53.6-26.8-66.7zm-180.4 430.5H18.1v-238h86.1v238zm316.3-266.1c9.9 0 19.3 3 27.3 8.8 14 10.1 21.3 28.2 18.4 46.2l-26.7 170.3v.3c-4.9 39.8-35.4 48.2-60.2 48.2H169.5c-26 0-47.1-21.1-47.1-47.1v-190.2l8.3-2.8c2.9-.8 25.2-7.6 47.8-23.7 32.1-22.8 49.1-53.3 49.1-88.2v-78.6c10.4-2 31.3-4 46.4 7.1 12.8 9.4 19.3 26.9 19.3 52v88.7c0 5 4.1 9.1 9.1 9.1h118.1v-.1z"/>
</symbol><symbol id="piggy-bank-1" viewBox="0 0 488.7 488.7">
    <circle fill="currentColor" cx="137.402" cy="190.5" r="71.6"/>
    <circle fill="currentColor" cx="230.402" cy="56" r="46.9"/>
    <path d="M432.402 331.5v-43.3c0-14.7-11.9-26.6-26.6-26.6h-6.5c-9.1-23.8-24.6-45.4-45.4-62.9 0-.1 0-.1-.1-.2-3.1-10.9-.8-22.6 6.8-34.7 4.1-6.5 4-14.5-.1-20.9s-11.3-9.8-18.9-8.9c-28.9 3.6-46.1 16.8-56.1 29-9.6-2.7-19.6-4.7-29.6-5.9-5-.6-9.5 3-10.1 7.9-.6 5 3 9.5 7.9 10.1 11.1 1.3 22 3.7 32.5 7 3.8 1.2 8-.2 10.3-3.6 6.9-10.3 20.8-23.3 47.3-26.5.2 0 .9-.1 1.4.6.5.8.1 1.3 0 1.5-10.3 16.4-13.3 33.5-8.8 49.3 0 .1.1.2.1.4.1 2.6 1.3 5.1 3.4 6.8 21.2 17.1 36.6 38.9 44.4 62.9 1.2 3.7 4.7 6.2 8.6 6.2H405.802c4.7 0 8.5 3.8 8.5 8.5v43.3c0 4.7-3.8 8.5-8.5 8.5h-12.1c-4 0-7.5 2.6-8.7 6.4-5.7 18.5-30.4 49.6-40 60.8l-2.2 1.9c-20.3 18.4-22.4 40.1-22.6 46.3v14.5c0 .2-.2.4-.4.4h-57.9c-.2 0-.4-.2-.4-.4v-13.7c0-2.6-1.1-5-3-6.7s-4.5-2.5-7-2.3c-14.6 1.5-29.4 1.3-43.7-.6-2.6-.3-5.2.4-7.2 2.2-2 1.7-3.1 4.2-3.1 6.8v14.3c0 .2-.2.4-.4.4h-57.9c-.2 0-.4-.2-.4-.4v-4.4-.4c-.5-10.4-3.8-36.8-24.3-57.9-9.9-10.2-18.8-23.6-26.3-39.9-.1-.1-.1-.2-.2-.3-4.5-8.7-7.9-17.9-10.2-27.2 0-.1 0-.2-.1-.2l-.1-.3c0-.1-.1-.2-.1-.3-3.6-12.1-3.2-27.3-3.2-27.5v-.3c0-6.7.6-13.4 1.7-19.9.8-4.9-2.5-9.6-7.4-10.4s-9.6 2.5-10.4 7.4c-1.3 7.5-1.9 15.1-1.9 22.8 0 1.9-.3 18.6 4 33l.1.2c2.6 10.7 6.5 21.1 11.6 31 8.4 18.1 18.4 33.2 29.7 44.8 16.1 16.6 18.8 37.5 19.2 45.9V471.4c.7 9.7 8.8 17.3 18.5 17.3h57.9c10.2 0 18.6-8.3 18.6-18.6v-4.2c9.2.8 18.5.9 27.8.4v3.8c0 10.2 8.3 18.6 18.6 18.6h57.9c10.2 0 18.6-8.3 18.6-18.6v-14.2c.1-3.4 1.4-19.4 16.5-33.1l2.6-2.2.9-.9c1.4-1.6 30.8-35.5 41.7-61.4h5.8c14.2-.2 26.1-12.2 26.1-26.8z"/>
    <path d="M56.802 190.5c0 44.5 36.2 80.6 80.6 80.6s80.6-36.2 80.6-80.6-36.2-80.6-80.6-80.6-80.6 36.2-80.6 80.6zm143.1 0c0 34.5-28 62.5-62.5 62.5s-62.5-28-62.5-62.5 28-62.5 62.5-62.5 62.5 28.1 62.5 62.5zM174.502 56c0 30.9 25.1 56 56 56s56-25.1 56-56-25.1-56-56-56-56 25.1-56 56zm93.8 0c0 20.9-17 37.9-37.9 37.9s-37.9-17-37.9-37.9 17-37.9 37.9-37.9 37.9 17 37.9 37.9z"/>
</symbol><symbol id="settings" viewBox="0 0 488.732 488.732">
    <path fill="currentColor" d="M379.466 269.723l-17.3-10c-3.6-2.1-5.7-6.1-5.5-10.2.3-6 .1-12-.5-17.9-.5-4.1 1.3-8.1 4.8-10.5l17-11.5c4.2-2.8 5.7-8.2 3.6-12.8l-5.6-12.2-5.6-12.2c-2.1-4.5-7.1-6.9-12-5.6l-19.2 5.4c-4.1 1.1-8.4-.2-11.3-3.3-4-4.4-8.3-8.5-13-12.2-3.2-2.6-4.9-6.7-4.1-10.8l3.8-20.2c.9-5-1.9-9.9-6.5-11.6l-12.6-4.7-12.6-4.7c-4.8-1.8-10 .1-12.6 4.5l-9.9 17.2c-2.1 3.7-6.1 5.7-10.4 5.5-6.3-.4-12.4-.2-18.5.6-4.2.5-8.3-1.3-10.6-4.7l-11.4-16.8c-2.8-4.2-8.2-5.7-12.8-3.6l-12.2 5.6-12.2 5.6c-4.5 2.1-6.9 7.1-5.6 12l5.2 19.6c1.1 4-.2 8.3-3.3 11.1-4.4 4-8.5 8.4-12.3 13.2-2.6 3.3-6.7 4.9-10.8 4.1l-19.9-3.8c-4.8-.9-9.7 1.8-11.7 6.3l-4.7 12.6-4.7 12.6c-1.8 4.8.1 10 4.5 12.6l17.5 10.1c3.6 2.1 5.7 6 5.5 10.2-.3 6.1-.1 12.1.6 18 .5 4.1-1.3 8.2-4.7 10.5l-16.6 11.2c-4.2 2.8-5.7 8.2-3.6 12.8l5.6 12.2 5.6 12.2c2.1 4.5 7.1 6.9 12 5.6l19.6-5.2c4-1.1 8.3.2 11.1 3.3 4 4.4 8.4 8.5 13.2 12.3 3.3 2.6 4.9 6.7 4.1 10.8l-3.8 19.9c-.9 5 1.9 9.9 6.5 11.6l12.6 4.7 12.6 4.7c4.8 1.8 10-.1 12.6-4.5l10.1-17.5c2.1-3.6 6-5.7 10.2-5.5 5.7.2 11.5 0 17.1-.6 4.1-.5 8.2 1.3 10.6 4.8l11.5 17c2.8 4.2 8.2 5.7 12.8 3.6l12.2-5.6 12.2-5.6c4.5-2.1 6.9-7.1 5.6-12l-5.2-19.3c-1.1-4.1.2-8.3 3.4-11.2 4.4-4 8.5-8.3 12.3-13 2.6-3.2 6.7-4.9 10.8-4.1l20.2 3.8c5 .9 9.9-1.9 11.6-6.5l4.7-12.6 4.7-12.6c1.6-4.9-.4-10.2-4.7-12.7zm-89-9.3c-9.1 25.5-37 38.8-62.5 29.7-25.5-9.1-38.8-37-29.7-62.5s37-38.8 62.5-29.7c25.4 9.1 38.7 37.1 29.7 62.5z"/>
    <path d="M241.466.223c-65.2.8-126.3 26.9-171.9 73.5-32.6 33.5-54.9 75.2-64.4 120.7-9.2 44.3-6.1 90.2 9.2 132.7 1.3 3.7 4.8 6 8.5 6 1 0 2.1-.2 3.1-.5 4.7-1.7 7.2-6.9 5.5-11.6-29.5-82.2-9.9-172.1 51.1-234.6 42.2-43.2 98.7-67.3 159.1-68s117.4 22.2 160.6 64.4l1.4 1.3-27.3.3c-5 .1-9 4.2-9 9.2.1 5 4.1 9 9.1 9h.1l49.2-.6c5-.1 9-4.2 9-9.2l-.6-49.2c-.1-5-4.1-9-9.1-9h-.1c-5 .1-9 4.2-9 9.2l.3 27.3-1.4-1.3c-46.5-45.6-108.2-70.3-173.4-69.6zM53.866 396.123l.6 49.2c.1 5 4.1 9 9.1 9h.1c5-.1 9-4.2 9-9.2l-.3-27.3 1.4 1.3c47.4 46.4 109.1 69.5 170.7 69.4 63.5 0 126.9-24.5 174.7-73.4 32.7-33.4 54.9-75.1 64.4-120.7 9.2-44.3 6.1-90.2-9.2-132.7-1.7-4.7-6.9-7.2-11.6-5.5s-7.2 6.9-5.5 11.6c29.5 82.2 9.9 172.1-51.1 234.6-87.1 89.2-230.6 90.8-319.7 3.7l-1.4-1.3 27.3-.3c5-.1 9-4.2 9-9.2-.1-5-4.1-9-9.1-9h-.1l-49.2.6c-5.2.1-9.2 4.2-9.1 9.2z"/>
    <path d="M149.266 168.823c-.5.6-1.3.9-2 .8l-19.9-3.9c-1.2-.2-2.3-.3-3.5-.3-7.9 0-15 4.7-18.1 11.9-.1.1-.1.3-.2.4l-9.4 25.2c-3.3 8.9.2 18.8 8.5 23.6l17.5 10.1c.6.4 1 1.1 1 1.9-.3 6.5-.1 13.1.7 19.5.1.8-.2 1.6-.8 2l-16.9 11.4c-7.8 5.3-10.6 15.4-6.7 24l11.1 24.3c3.1 6.9 10 11.3 17.6 11.3 1.7 0 3.3-.2 5-.7l19.6-5.2c.7-.2 1.5.1 2 .7 4.3 4.8 9.2 9.2 14.3 13.3.6.5.9 1.3.8 2l-3.8 19.9c-1.8 9.3 3.4 18.5 12.3 21.8l25.2 9.4c2.2.8 4.5 1.2 6.8 1.2 6.9 0 13.3-3.7 16.8-9.7l10.1-17.5c.4-.6 1.1-1 2-1 6.1.3 12.4 0 18.5-.6.8-.1 1.6.2 2 .8l11.5 17c3.6 5.3 9.6 8.5 16 8.5 2.8 0 5.5-.6 8-1.7l24.3-11.1c8.6-3.9 13.1-13.4 10.6-22.6l-5.2-19.3c-.2-.7.1-1.5.7-2.1 4.9-4.4 9.3-9.1 13.2-14.1.5-.6 1.3-1 2-.8l20.2 3.8c1.2.2 2.4.3 3.6.3 8.1 0 15.4-5.1 18.2-12.6l9.4-25.2c3.3-8.9-.2-18.8-8.5-23.6l-17.3-10c-.6-.4-1-1.1-1-1.9.3-6.4.1-13-.6-19.4-.1-.8.2-1.5.8-2l17-11.5c7.8-5.3 10.6-15.4 6.7-24l-11.1-24.3c-3.1-6.9-10-11.3-17.6-11.3-1.7 0-3.3.2-5.1.7l-19.2 5.4c-.7.2-1.5-.1-2.1-.7-4.4-4.8-9.1-9.3-14-13.2-.7-.5-1-1.3-.8-2l3.8-20.2c1.8-9.3-3.4-18.5-12.3-21.8l-25.2-9.4c-2.2-.8-4.5-1.2-6.8-1.2-6.9 0-13.3 3.7-16.8 9.7l-10 17.2c-.4.6-1 1-2 1-6.7-.4-13.5-.2-20.1.6-.8.1-1.6-.2-2.1-.8l-11.4-16.8c-3.6-5.3-9.6-8.5-16-8.5-2.8 0-5.5.6-8 1.7l-24.3 11.1c-8.6 3.9-13.1 13.4-10.6 22.6l5.2 19.6c.2.7-.1 1.5-.7 2-4.4 4.3-8.9 9.1-12.9 14.3zm14.2 11.2c3.4-4.4 7.2-8.5 11.3-12.1 5.6-5.1 7.9-12.8 6-20.1l-5.2-19.6c-.2-.6.1-1.2.6-1.4l24.3-11.1c.2-.1.3-.1.5-.1s.7 0 1 .5l11.4 16.8c4.2 6.2 11.6 9.6 19.2 8.7 5.6-.7 11.3-.9 16.9-.5 7.7.5 15-3.5 18.7-10l9.9-17.2c.3-.6.9-.8 1.6-.6l25.2 9.4c.6.2.9.9.8 1.4l-3.8 20.2c-1.4 7.3 1.4 14.8 7.3 19.6 4.2 3.3 8.2 7.1 11.9 11.2 3.9 4.3 9.3 6.7 15 6.7 1.8 0 3.6-.2 5.4-.7l19.1-5.3c.5-.1 1.1 0 1.5.6l11.1 24.3c.2.5 0 1.2-.4 1.5l-17 11.5c-6.2 4.2-9.5 11.5-8.7 19 .6 5.5.8 11 .5 16.5-.4 7.6 3.4 14.8 10 18.6l17.3 10c.6.3.8.9.6 1.6l-9.4 25.2c-.2.5-.9.9-1.4.8l-20.2-3.8c-1.2-.2-2.5-.4-3.7-.4-6.2 0-11.9 2.8-15.8 7.7-3.3 4.2-7.1 8.2-11.3 12-5.7 5.2-8 12.9-6 20.2l5.2 19.3c.2.6-.1 1.2-.6 1.4l-24.3 11.1c-.2.1-.3.1-.5.1s-.7 0-1-.5l-11.5-17c-4.2-6.1-11.5-9.6-19.1-8.7-5.2.6-10.5.8-15.7.5-7.6-.3-14.7 3.6-18.5 10.1l-10.1 17.5c-.3.6-.9.8-1.6.6l-25.2-9.4c-.6-.2-.9-.9-.8-1.4l3.8-19.9c1.4-7.4-1.4-14.9-7.4-19.7-4.4-3.4-8.4-7.2-12.1-11.3-3.8-4.2-9.3-6.6-15-6.6-1.7 0-3.5.2-5.2.7l-19.6 5.2c-.5.1-1.1 0-1.5-.6l-11.1-24.3c-.2-.5 0-1.2.4-1.5l16.8-11.4c6.2-4.2 9.6-11.6 8.7-19.1-.6-5.4-.8-11-.6-16.5.3-7.6-3.5-14.7-10-18.4l-17.5-10.1c-.6-.3-.8-.9-.6-1.6l9.3-24.9c.3-.5.9-.9 1.4-.9h.1l19.9 3.8c1.2.2 2.5.4 3.8.4 6.2-.3 12-3.1 15.9-8z"/>
    <path d="M224.866 298.723c6.3 2.2 12.8 3.4 19.4 3.4 24.5 0 46.5-15.5 54.7-38.6 10.7-30.1-5.1-63.4-35.2-74.1-6.3-2.2-12.8-3.4-19.4-3.4-24.5 0-46.5 15.5-54.7 38.6-10.7 30.2 5.1 63.4 35.2 74.1zm-18.1-68c5.6-15.9 20.7-26.5 37.6-26.5 4.5 0 9 .8 13.4 2.3 20.7 7.4 31.6 30.2 24.2 50.9-5.6 15.9-20.7 26.5-37.6 26.5-4.5 0-9-.8-13.4-2.3-20.7-7.3-31.6-30.2-24.2-50.9z"/>
</symbol><symbol id="smartphone" viewBox="0 0 489.1 489.1">
    <path fill="currentColor" d="M416.85 133.2h-190.1c-17.2 0-31.3 14.1-31.3 31.3v116c0 17.2 14.1 31.3 31.3 31.3h24.5v55.4l57.8-55.4h107.7c17.2 0 31.3-14.1 31.3-31.3v-116c0-17.2-14-31.3-31.2-31.3z"/>
    <path d="M321.75 100c5 0 9.1-4.1 9.1-9.1V51.4c0-28.4-23.1-51.4-51.4-51.4H85.05c-28.4 0-51.4 23.1-51.4 51.4v315.8c0 5 4.1 9.1 9.1 9.1s9.1-4.1 9.1-9.1V51.4c0-18.4 14.9-33.3 33.3-33.3h194.3c18.4 0 33.3 14.9 33.3 33.3v10.8H84.35c-5 0-9.1 4.1-9.1 9.1s4.1 9.1 9.1 9.1h228.4V91c-.1 5 4 9 9 9zM328.05 435.4v-83.2c0-5-4.1-9.1-9.1-9.1s-9.1 4.1-9.1 9.1v83.2c0 17.5-11.4 35.7-30.5 35.7H85.05c-18.3 0-35-17-35-35.7v-14.7h221.6c5 0 9.1-4.1 9.1-9.1s-4.1-9.1-9.1-9.1H41.05c-5 0-9.1 4.1-9.1 9.1v23.7c0 28.7 24.8 53.8 53.1 53.8h194.3c27.3.1 48.7-23.5 48.7-53.7z"/>
    <path d="M457.15 280.5v-116c0-22.2-18.1-40.3-40.4-40.3h-190c-22.2 0-40.4 18.1-40.4 40.3v116c0 22.2 18.1 40.4 40.4 40.4h15.5v46.3c0 3.6 2.2 6.9 5.5 8.3 1.1.5 2.4.7 3.6.7 2.3 0 4.6-.9 6.3-2.5l55.2-52.9h104.1c22.1 0 40.2-18.1 40.2-40.3zm-148.1 22.2c-2.3 0-4.6.9-6.3 2.5l-42.5 40.7v-34.2c0-5-4.1-9.1-9.1-9.1h-24.5c-12.3 0-22.2-10-22.2-22.2v-116c0-12.3 10-22.2 22.2-22.2h190.1c12.3 0 22.2 10 22.2 22.2v116c0 12.3-10 22.2-22.2 22.2h-107.7v.1z"/>
    <path d="M321.75 217.2c-2.4 0-4.7 1-6.4 2.6-1.7 1.7-2.6 4-2.6 6.4s1 4.7 2.7 6.4 4 2.7 6.4 2.7 4.7-1 6.4-2.7c1.7-1.7 2.7-4 2.7-6.4s-1-4.7-2.7-6.4c-1.8-1.6-4.1-2.6-6.5-2.6zM355.45 217.2c-2.4 0-4.7 1-6.4 2.6-1.7 1.7-2.6 4-2.6 6.4s1 4.7 2.6 6.4c1.7 1.7 4 2.7 6.4 2.7s4.7-1 6.4-2.7c1.7-1.7 2.6-4 2.6-6.4s-1-4.7-2.6-6.4c-1.6-1.6-4-2.6-6.4-2.6zM288.05 217.2c-2.4 0-4.7 1-6.4 2.6-1.7 1.7-2.6 4-2.6 6.4s1 4.7 2.6 6.4c1.7 1.7 4 2.7 6.4 2.7s4.7-1 6.4-2.7c1.7-1.7 2.7-4 2.7-6.4s-1-4.7-2.7-6.4c-1.7-1.6-4-2.6-6.4-2.6z"/>
</symbol><symbol id="worldwide" viewBox="0 0 489.357 489.357">
    <path fill="currentColor" d="M297.666 372.612c-70.7 29.3-151.8-4.3-181.1-75s4.3-151.8 75-181.1 151.8 4.3 181.1 75-4.3 151.8-75 181.1z"/>
    <path d="M432.866 99.012c1.7-1.7 2.6-4 2.6-6.4l-.6-49.3c-.1-5-4.2-9-9.2-9-5 .1-9 4.2-9 9.2l.3 27.4-1.3-1.3c-96.5-94.3-251.7-92.5-346 4-32.7 33.5-55 75.3-64.5 120.9-9.2 44.4-6.1 90.4 9.2 132.9 1.3 3.7 4.8 6 8.5 6 1 0 2.1-.2 3.1-.5 4.7-1.7 7.2-6.9 5.5-11.6-29.6-82.4-9.9-172.5 51.2-235 87.3-89.3 231-91 320.3-3.7l1.4 1.4-27.4.3c-5 .1-9 4.2-9 9.2.1 5 4.1 9 9.1 9h.1l49.3-.6c2.4-.2 4.7-1.1 6.4-2.9zM474.966 161.712c-1.7-4.7-6.9-7.2-11.6-5.5s-7.2 6.9-5.5 11.6c29.6 82.4 9.9 172.5-51.2 235-42.3 43.3-98.9 67.5-159.4 68.2-60.6.8-117.7-22.2-160.9-64.4l-1.4-1.4 27.4-.3c5-.1 9-4.2 9-9.2-.1-5-4.1-9.1-9.2-9l-49.3.6c-5 .1-9 4.2-9 9.2l.6 49.3c.1 5 4.1 9 9.1 9h.1c5-.1 9-4.2 9-9.2l-.3-27.4 1.4 1.4c46.1 45 106.6 69.7 170.9 69.7h2.9c65.3-.8 126.5-26.9 172.2-73.6 32.7-33.5 55-75.3 64.5-120.9 9.1-44.5 6-90.5-9.3-133.1z"/>
    <path d="M244.566 96.912c-19.4 0-38.4 3.8-56.4 11.3-36.4 15.1-64.8 43.5-79.9 79.9s-15.1 76.6 0 113c22.9 55.4 76.5 91.2 136.5 91.2 19.4 0 38.4-3.8 56.4-11.3 75.2-31.1 111.1-117.7 79.9-192.9-22.9-55.4-76.5-91.2-136.5-91.2zm113.8 85.6h-29.9c-5.9-21.6-14.8-40-25.9-53.9 23.3 11.6 42.9 30.3 55.8 53.9zm-235.5 105.9c-10.3-28.5-10.3-59.3 0-87.8h41.2c-2.5 13.7-3.8 28.5-3.8 43.9 0 15.3 1.5 30 4.1 43.9h-41.5zm55.5-43.9c0-15.5 1.5-30.3 4.1-43.9h56.7v87.8h-56.2c-2.9-13.8-4.6-28.6-4.6-43.9zm79-125.9c22.8 5.1 41.8 29.4 52.2 64h-52.2v-64zm-18.1 0v63.9h-52.2c10.4-34.5 29.4-58.8 52.2-63.9zm0 188v63.8c-21.4-5.6-40.4-30.3-51.3-63.8h51.3zm18.1 63.8v-63.8h51.3c-10.9 33.5-29.9 58.2-51.3 63.8zm0-82v-87.8h56.7c2.7 13.6 4.1 28.4 4.1 43.9 0 15.3-1.7 30.1-4.7 43.9h-56.1zm75.2-87.8h34c10.6 29.3 9.9 60.3-.1 87.8h-34.3c2.7-13.9 4.1-28.6 4.1-43.9 0-15.4-1.3-30.1-3.7-43.9zm-137.4-75.7c1-.4 2.1-.8 3.1-1.2-13.1 14.4-23.5 34.7-30.1 58.9h-37.2c14.1-26 36.5-46.3 64.2-57.7zm-64.2 181.7h37.7c7 24.5 18.1 45.1 31.8 59.8-29.4-10.7-54.2-31.7-69.5-59.8zm169.4 54.9c11.7-14.2 21.2-33.1 27.5-54.9h30.4c-12.7 23.2-32.5 42.8-57.9 54.9z"/>
</symbol><symbol id="wristwatch" viewBox="0 0 489.74 489.74">
    <circle fill="currentColor" cx="244.557" cy="244.92" r="106.9"/>
    <path d="M61.557 253.82c.3 6.1-1.5 12.2-5.2 17.3l-47.7 66.6c-13.2 18.4-11.1 43.3 4.9 59.3l79.2 79.2c8.7 8.7 20.3 13.5 32.6 13.5 9.6 0 18.9-3 26.7-8.6l66.8-47.7c5.1-3.6 11.1-5.5 17.2-5.2 3 .1 6 .2 9 .2 49 0 95.1-19.1 129.7-53.7 36.5-36.5 56-87.1 53.5-138.7-.3-6 1.5-12.1 5.2-17.2l47.7-66.8c13.1-18.4 11-43.3-4.9-59.3l-79.2-79.2c-8.7-8.7-20.3-13.5-32.6-13.5-9.7 0-18.9 3-26.8 8.6l-66.6 47.7c-5.1 3.7-11.2 5.5-17.3 5.2-3.1-.2-6.3-.2-9.4-.2-48.8 0-94.7 19-129.3 53.6-36.7 36.7-56.2 87.3-53.5 138.9zm18.1-.9c-2.4-46.5 15.1-92.1 48.1-125 31.2-31.2 72.5-48.3 116.5-48.3 2.8 0 5.7.1 8.5.2 10.3.5 20.3-2.5 28.8-8.5l66.6-47.7c4.8-3.4 10.4-5.2 16.2-5.2 7.5 0 14.5 2.9 19.7 8.2l79.2 79.2c9.7 9.7 10.9 24.8 3 35.9l-47.7 66.8c-6 8.4-9 18.5-8.5 28.6 2.3 46.5-15.3 92.1-48.2 125-31.2 31.2-72.7 48.4-116.9 48.4-2.7 0-5.4-.1-8.1-.2-10.2-.5-20.1 2.5-28.6 8.5l-66.8 47.7c-4.8 3.4-10.4 5.2-16.2 5.2-7.5 0-14.5-2.9-19.7-8.2l-79.2-79.2c-9.7-9.7-10.9-24.8-3-36l47.7-66.6c6.1-8.5 9.1-18.7 8.6-28.8z"/>
    <path d="M294.757 160.72c1.4.9 3 1.3 4.6 1.3 3.1 0 6.1-1.6 7.8-4.4 2.6-4.3 1.1-9.9-3.2-12.4-4.3-2.6-9.8-1.1-12.4 3.2-2.5 4.2-1.1 9.8 3.2 12.3zM294.957 329.22c-4.3 2.5-5.7 8.1-3.2 12.4 1.7 2.9 4.7 4.4 7.8 4.4 1.6 0 3.2-.4 4.6-1.3 4.3-2.6 5.7-8.1 3.1-12.4-2.5-4.3-8-5.7-12.3-3.1zM151.557 298.22c-4.1 2.8-5.2 8.5-2.3 12.6 1.8 2.6 4.6 3.9 7.5 3.9 1.8 0 3.5-.5 5.1-1.6 4.1-2.8 5.2-8.5 2.3-12.6-2.8-4.1-8.5-5.1-12.6-2.3zM140.057 222.02c.9.3 1.8.4 2.7.4 3.9 0 7.5-2.5 8.7-6.4 1.5-4.8-1.2-9.9-6-11.3-4.8-1.5-9.9 1.2-11.3 6-1.6 4.8 1.1 9.8 5.9 11.3zM137.957 254.12c5 0 9.1-4.1 9.1-9.1s-4.1-9.1-9.1-9c-5 0-9.1 4.1-9 9.1 0 5 4 9 9 9zM206.357 154.22c1.1 0 2.2-.2 3.2-.6 4.7-1.8 7-7 5.2-11.7s-7-7-11.7-5.2-7 7-5.2 11.7c1.4 3.6 4.9 5.8 8.5 5.8zM184.257 322.02c-3.9-3.1-9.6-2.4-12.7 1.5s-2.4 9.6 1.5 12.7c1.7 1.3 3.6 2 5.6 2 2.7 0 5.3-1.2 7.1-3.5 3.1-3.9 2.4-9.6-1.5-12.7zM178.457 170.12c2 0 4-.6 5.6-2 3.9-3.1 4.6-8.8 1.5-12.7s-8.8-4.6-12.7-1.5-4.6 8.8-1.5 12.7c1.8 2.3 4.5 3.5 7.1 3.5zM151.457 191.92c1.6 1.1 3.3 1.6 5.1 1.6 2.9 0 5.7-1.4 7.5-3.9 2.8-4.1 1.8-9.8-2.3-12.6s-9.8-1.8-12.6 2.4c-2.9 4-1.8 9.7 2.3 12.5zM267.757 340.22c-4.9 1.2-7.9 6.1-6.7 10.9 1 4.2 4.7 7 8.8 7 .7 0 1.4-.1 2.1-.2 4.9-1.2 7.9-6.1 6.7-10.9-1.2-4.9-6.1-8-10.9-6.8zM267.557 149.72c.7.2 1.4.3 2.1.3 4.1 0 7.8-2.8 8.8-7 1.1-4.9-1.9-9.7-6.7-10.9-4.9-1.2-9.8 1.9-10.9 6.7s1.9 9.8 6.7 10.9zM151.357 274.12c-1.5-4.8-6.5-7.5-11.3-6s-7.5 6.5-6 11.3c1.2 3.9 4.8 6.4 8.7 6.4.9 0 1.8-.1 2.7-.4 4.7-1.4 7.4-6.5 5.9-11.3zM209.757 336.42c-4.7-1.8-9.9.6-11.7 5.2-1.8 4.7.6 9.9 5.2 11.7 1.1.4 2.2.6 3.2.6 3.7 0 7.1-2.2 8.5-5.8 1.8-4.6-.5-9.9-5.2-11.7zM238.457 342.72c-5-.3-9.3 3.5-9.6 8.5s3.5 9.3 8.5 9.6h.6c4.7 0 8.7-3.7 9-8.5.3-5-3.5-9.3-8.5-9.6zM237.657 147.32h.6c5-.3 8.8-4.7 8.4-9.6-.3-5-4.7-8.8-9.6-8.4-5 .3-8.8 4.7-8.4 9.6.3 4.7 4.3 8.4 9 8.4zM318.257 323.32c1.7 1.6 3.9 2.3 6.1 2.3 2.5 0 4.9-1 6.7-3 39.3-43.6 39.3-111.8 0-155.4-3.4-3.7-9.1-4-12.8-.7-3.7 3.4-4 9.1-.7 12.8 33.2 36.7 33.2 94.3 0 131.1-3.3 3.8-3 9.6.7 12.9z"/>
</symbol></svg>